<svg width="25" height="25" viewBox="0 0 25 25" fill="none" xmlns="http://www.w3.org/2000/svg">
<path d="M2.5 16.7L2.5 8.3C2.5 5.0968 5.09675 2.5 8.3 2.5L16.7 2.5C19.9033 2.5 22.5 5.0968 22.5 8.29999L22.5 16.7C22.5 19.9032 19.9033 22.5 16.7 22.5L8.3 22.5C5.09675 22.5 2.5 19.9032 2.5 16.7ZM4.49998 16.9C4.49998 18.8882 6.11176 20.5 8.09998 20.5L16.9 20.5C18.8882 20.5 20.5 18.8882 20.5 16.9L20.5 8.1C20.5 6.1118 18.8882 4.5 16.9 4.5L8.09998 4.5C6.11176 4.5 4.49998 6.1118 4.49998 8.1L4.49998 16.9ZM5.99998 7.25C5.99998 6.5596 6.55963 6 7.24998 6C7.94034 6 8.49998 6.5596 8.49998 7.25C8.49998 7.9404 7.94034 8.5 7.24998 8.5C6.55963 8.5 5.99998 7.9404 5.99998 7.25ZM7.49998 12.5C7.49998 9.7386 9.73856 7.5 12.5 7.5C15.2614 7.5 17.5 9.7386 17.5 12.5C17.5 15.2614 15.2614 17.5 12.5 17.5C9.73856 17.5 7.49998 15.2614 7.49998 12.5ZM9.49998 12.5C9.49998 14.1569 10.8432 15.5 12.5 15.5C14.1569 15.5 15.5 14.1569 15.5 12.5C15.5 10.8431 14.1569 9.5 12.5 9.5C10.8432 9.5 9.49998 10.8431 9.49998 12.5Z" fill="white"></path>
</svg>