<svg width="25" height="25" viewBox="0 0 25 25" fill="none" xmlns="http://www.w3.org/2000/svg">
<path d="M6.51238 2.04079C6.85373 2.81039 7.08442 3.63759 7.18815 4.50559C6.65701 3.61969 5.81598 2.93909 4.81378 2.61869C5.30564 3.44799 5.66278 4.36639 5.8552 5.34399C5.02112 6.12679 4.5 7.24209 4.5 8.47649C4.5 10.8466 6.42147 12.7683 8.79155 12.7683C9.1279 12.7683 9.45546 12.7303 9.7696 12.6571C9.5906 16.2239 7.88203 19.3862 5.28551 21.5029C5.91935 21.8723 6.65656 22.084 7.44309 22.084C8.93204 22.084 10.2456 21.3263 11.0153 20.1748C10.9929 20.8782 10.7999 21.54 10.4785 22.1186C10.4964 22.119 10.5143 22.119 10.5324 22.119C12.6118 22.119 14.3463 20.6397 14.7406 18.6764C14.8387 19.0365 14.8912 19.4156 14.8912 19.807C14.8912 20.0836 14.8642 20.3524 14.8142 20.6145C16.5191 20.0684 17.76 18.4835 17.7945 16.6054C18.9457 18.0742 19.6318 19.9247 19.6318 21.9355C19.6318 22.2819 19.6114 22.6235 19.5717 22.9592C20.7894 21.06 21.5 18.8041 21.5 16.3805C21.5 8.48659 14.9605 4.16979 9.28918 4.16979C9.10314 4.16979 8.91805 4.17399 8.73395 4.18229C8.12886 3.34369 7.37302 2.61609 6.51238 2.04079Z" fill="white"></path>
</svg>